<?xml version="1.0" encoding="UTF-8"?>
<!DOCTYPE svg PUBLIC "-//W3C//DTD SVG 1.1//EN" "http://www.w3.org/Graphics/SVG/1.1/DTD/svg11.dtd">
<!-- Creator: CorelDRAW X7 -->
<svg xmlns="http://www.w3.org/2000/svg" xml:space="preserve" width="88px" height="31px" version="1.1" style="shape-rendering:geometricPrecision; text-rendering:geometricPrecision; image-rendering:optimizeQuality; fill-rule:evenodd; clip-rule:evenodd" viewBox="0 0 58850 20732" xmlns:xlink="http://www.w3.org/1999/xlink">
 <defs>
  <style type="text/css">
   <![CDATA[
    .fil0 {fill:none}
    .fil2 {fill:#2A609F}
    .fil1 {fill:#3B5999}
    .fil4 {fill:white}
    .fil3 {fill:white}
    .fil5 {fill:#3B5999;fill-rule:nonzero}
   ]]>
  </style>
 </defs>
 <g id="Слой_x0020_1">
  <metadata id="CorelCorpID_0Corel-Layer"/>
  <rect class="fil0" width="58851" height="20732"/>
  <rect class="fil1" width="58851" height="15757"/>
  <g id="_1773437995952">
   <path class="fil2" d="M6976 1910c2077,0 3762,1746 3762,3899 0,2154 -1685,3900 -3762,3900 -2078,0 -3762,-1746 -3762,-3900 0,-2153 1684,-3899 3762,-3899z"/>
   <path class="fil2" d="M12829 12046l26253 0 0 -8855 -28563 0c121,141 231,293 332,456 933,1505 704,3439 -448,4670 -90,98 -187,191 -289,278l131 213 114 183 90 145 239 385c88,-10 177,1 261,30 133,6 263,53 371,138 60,47 114,105 158,175l1237 1997 114 185z"/>
   <path class="fil3" d="M35095 4972l2342 0 0 988 -1343 0 0 1127 1174 0 0 988 -1174 0 0 1202 1343 0 0 989 -2342 0 0 -5294zm-22748 0l2341 0 0 988 -1342 0 0 1127 1173 0 0 988 -1173 0 0 1202 1342 0 0 989 -2341 0 0 -5294zm2612 0l1168 0 374 1308 44 0 352 -1308 1174 0 -1012 2533 1086 2761 -1175 0 -448 -1552 -29 0 -448 1552 -1159 0 1057 -2761 -984 -2533zm3537 1346c0,-421 109,-758 327,-1012 218,-253 552,-380 1002,-380 445,0 774,113 987,338 213,226 319,519 319,879 0,26 0,50 0,72 0,23 -3,47 -8,73l-961 175c-5,-157 -37,-288 -98,-392 -60,-104 -141,-156 -242,-156 -68,0 -123,14 -164,42 -41,28 -74,62 -98,103 -24,40 -42,84 -51,133 -9,48 -14,90 -14,125l0 2701c0,71 17,139 51,204 34,67 115,100 241,100 97,0 177,-46 238,-138 60,-90 93,-228 98,-410l986 137c-4,421 -117,759 -338,1015 -219,256 -538,384 -953,384 -461,0 -796,-111 -1006,-334 -210,-224 -316,-558 -316,-1004l0 -2655zm3178 -1346l998 0 0 2099 639 0 0 -2099 998 0 0 5294 -998 0 0 -2191 -639 0 0 2191 -998 0 0 -5294zm4029 0l1218 0 976 5294 -1049 0 -154 -1035 -749 0 -154 1035 -1057 0 969 -5294zm748 2442l-110 -1073 -44 0 -110 1073 -102 843 462 0 -96 -843zm1864 -2442l873 0 603 1537 344 966 37 0 0 -2503 976 0 0 5294 -848 0 -599 -1544 -351 -1004 -36 0 0 2548 -999 0 0 -5294zm3559 1346c0,-421 114,-758 342,-1012 227,-253 556,-380 986,-380 230,0 430,34 599,103 168,68 308,164 418,285 110,122 189,266 235,434 46,167 62,347 48,540l-969 175c-5,-157 -37,-288 -97,-392 -60,-104 -141,-156 -241,-156 -66,0 -121,14 -161,42 -40,28 -74,62 -97,103 -24,40 -41,84 -50,133 -10,48 -15,90 -15,125l0 2701c0,71 17,139 51,204 33,67 112,100 236,100 95,0 174,-27 237,-80 61,-54 93,-123 93,-209l0 -815 -338 0 0 -904 1335 0 0 1665c0,437 -112,767 -337,993 -225,226 -542,338 -954,338 -460,0 -795,-111 -1005,-334 -211,-224 -316,-558 -316,-1004l0 -2655z"/>
   <path class="fil3" d="M8925 3799c-527,-332 -1056,-659 -1585,-990 -35,-23 -72,-33 -106,-10 -39,25 -45,69 -36,112 33,162 70,322 104,482 7,34 2,53 -38,56 -1779,98 -3218,1675 -2736,3540 12,49 26,100 82,118 39,14 79,2 106,-25 22,-21 36,-49 38,-84 100,-1447 1543,-2155 2790,-2225 32,-2 54,13 58,50 30,211 94,448 139,659 10,52 33,79 76,87 46,9 76,-20 100,-56 352,-520 701,-1057 1038,-1588 31,-48 18,-95 -30,-126zm-3898 4020c527,333 1057,660 1584,991 37,22 73,32 108,10 38,-25 43,-70 34,-113 -33,-161 -70,-321 -103,-481 -7,-34 -2,-53 39,-56 1778,-99 3218,-1675 2735,-3541 -12,-48 -27,-100 -81,-117 -40,-14 -79,-2 -107,25 -21,20 -36,49 -39,84 -98,1447 -1542,2155 -2789,2225 -33,2 -53,-13 -59,-50 -28,-211 -93,-449 -137,-660 -12,-51 -34,-78 -76,-86 -48,-9 -77,20 -101,56 -352,520 -702,1057 -1038,1588 -30,48 -18,95 30,125z"/>
   <path class="fil4" d="M12063 12109l-1270 -2049c-44,-72 -100,-132 -161,-180 -173,-136 -402,-178 -611,-110l-283 -457 -93 -151 -117 -188 -135 -217c105,-91 205,-185 298,-285 1182,-1265 1418,-3250 460,-4796 -136,-219 -289,-419 -458,-599 -281,-303 -604,-550 -952,-740 -417,-226 -869,-369 -1334,-422 -141,-15 -283,-23 -426,-23 -688,2 -1384,201 -2006,615 -1115,743 -1722,1994 -1722,3273 0,717 193,1443 594,2091 795,1283 2196,1917 3565,1761 382,-44 762,-149 1125,-319l147 238 486 785c-199,229 -235,576 -67,849l1462 2359c130,208 348,322 571,322 125,0 252,-36 365,-111l47 -32 503 -335c314,-209 406,-643 204,-969l-192 -310zm-7761 -4540c-927,-1496 -551,-3470 827,-4494 45,-33 91,-66 138,-97 660,-439 1418,-596 2140,-499 22,3 43,6 64,9 809,126 1567,570 2089,1288 44,63 88,126 129,192 3,3 5,7 7,11 119,192 216,391 293,597 180,479 245,985 203,1481 -82,991 -591,1933 -1461,2512 -413,274 -862,438 -1318,499 -34,5 -67,8 -101,12 -772,77 -1552,-138 -2186,-610 -318,-237 -599,-539 -824,-901z"/>
   <path class="fil3" d="M54070 3191l-15050 0 0 8855 15050 0c864,0 1565,-726 1565,-1621l0 -5612c0,-896 -701,-1622 -1565,-1622z"/>
   <path class="fil2" d="M41486 6615c10,55 34,109 73,160 39,50 96,99 171,148 76,48 182,100 319,156 234,96 418,197 555,304 136,107 239,223 310,350 71,127 117,270 139,430 23,159 34,341 34,544 0,243 -22,463 -64,662 -41,197 -112,365 -212,505 -100,140 -236,247 -408,323 -171,76 -386,114 -646,114 -234,0 -436,-36 -605,-107 -168,-72 -305,-170 -411,-295 -105,-125 -182,-271 -231,-437 -49,-166 -73,-342 -73,-530l1005 -197c10,192 37,337 84,433 46,97 132,145 257,145 73,0 130,-18 171,-53 41,-36 73,-81 94,-138 22,-55 36,-120 44,-197 6,-76 10,-152 10,-227 0,-106 -7,-196 -21,-266 -16,-71 -40,-132 -77,-182 -37,-51 -87,-95 -151,-133 -63,-39 -142,-77 -235,-118 -249,-106 -450,-216 -602,-331 -151,-113 -267,-234 -348,-364 -81,-129 -133,-265 -158,-410 -24,-144 -36,-302 -36,-474 0,-218 24,-419 73,-604 49,-185 126,-343 231,-475 106,-131 242,-234 411,-311 169,-76 373,-114 612,-114 255,0 466,42 632,126 166,84 297,190 392,319 96,130 163,273 202,430 40,157 60,309 60,456l-985 221c0,-76 -4,-147 -10,-213 -8,-66 -24,-125 -47,-179 -25,-53 -57,-95 -98,-125 -41,-31 -98,-46 -171,-46 -68,0 -121,17 -159,49 -39,33 -69,74 -91,122 -22,48 -37,103 -44,163 -7,61 -11,120 -11,176 0,71 5,134 15,190zm12291 2358c0,456 -109,793 -330,1012 -219,218 -545,326 -975,326 -867,0 -1300,-446 -1300,-1338l0 -2716c0,-456 115,-792 346,-1008 230,-215 548,-323 954,-323 445,0 774,108 986,323 214,216 319,552 319,1008l0 2716zm-1305 -3081c-84,0 -155,26 -213,76 -59,51 -88,135 -88,251l0 2800c0,121 29,206 88,254 58,48 129,73 213,73 83,0 152,-25 208,-73 56,-48 85,-133 85,-254l0 -2800c0,-116 -29,-200 -85,-251 -56,-50 -125,-76 -208,-76zm-1960 4374l-997 0 0 -2472 -30 0 -241 821 -197 616 -665 0 -212 -677 -234 -783 -36 0 0 2495 -998 0 0 -5294 932 0 506 1415 345 1050 44 0 352 -1073 500 -1392 931 0 0 5294zm-4264 -1293c0,456 -109,793 -330,1012 -219,218 -545,326 -975,326 -867,0 -1300,-446 -1300,-1338l0 -3994 999 0 0 4017c0,121 29,206 88,254 58,48 129,73 213,73 83,0 152,-25 208,-73 57,-48 85,-133 85,-254l0 -4017 1012 0 0 3994z"/>
  </g>
  <polygon class="fil5" points="1302,17014 2307,17014 2690,18513 3074,17014 4074,17014 4074,19478 3451,19478 3451,17599 2970,19478 2405,19478 1926,17599 1926,19478 1302,19478 "/>
  <path id="1" class="fil5" d="M4462 18248c0,-402 112,-716 336,-940 225,-224 537,-336 937,-336 410,0 726,111 948,330 223,220 333,529 333,926 0,287 -48,524 -145,708 -97,184 -238,327 -420,430 -184,103 -412,153 -686,153 -278,0 -508,-44 -690,-132 -182,-89 -330,-229 -443,-421 -113,-191 -170,-430 -170,-718zm761 1c0,249 46,427 139,536 93,109 218,163 378,163 163,0 291,-54 381,-159 90,-107 135,-297 135,-574 0,-231 -48,-400 -141,-507 -94,-107 -221,-161 -381,-161 -154,0 -278,54 -372,163 -93,109 -139,289 -139,539z"/>
  <polygon id="2" class="fil5" points="7429,17014 8190,17014 8190,17874 9023,17874 9023,17014 9787,17014 9787,19478 9023,19478 9023,18480 8190,18480 8190,19478 7429,19478 "/>
  <polygon id="3" class="fil5" points="12651,17014 12651,19478 11935,19478 11935,18125 11019,19478 10296,19478 10296,17014 11016,17014 11016,18377 11939,17014 "/>
  <polygon id="4" class="fil5" points="12988,17014 15305,17014 15305,17623 14526,17623 14526,19478 13766,19478 13766,17623 12988,17623 "/>
  <path id="5" class="fil5" d="M15549 18248c0,-402 113,-716 337,-940 224,-224 536,-336 937,-336 410,0 726,111 947,330 223,220 334,529 334,926 0,287 -48,524 -146,708 -97,184 -237,327 -420,430 -184,103 -412,153 -685,153 -278,0 -508,-44 -691,-132 -181,-89 -330,-229 -443,-421 -113,-191 -170,-430 -170,-718zm761 1c0,249 47,427 139,536 93,109 219,163 378,163 164,0 292,-54 381,-159 90,-107 135,-297 135,-574 0,-231 -47,-400 -140,-507 -94,-107 -222,-161 -382,-161 -154,0 -278,54 -371,163 -93,109 -140,289 -140,539z"/>
  <path id="6" class="fil5" d="M18510 17014l1267 0c275,0 482,65 620,196 136,132 205,319 205,561 0,249 -75,444 -224,585 -150,140 -379,210 -687,210l-417 0 0 912 -764 0 0 -2464zm764 1053l188 0c147,0 252,-26 311,-77 60,-51 89,-117 89,-197 0,-77 -25,-142 -77,-196 -52,-54 -150,-81 -293,-81l-218 0 0 551z"/>
  <polygon id="7" class="fil5" points="23356,17014 23356,19478 22641,19478 22641,18125 21725,19478 21002,19478 21002,17014 21721,17014 21721,18377 22645,17014 "/>
  <polygon id="8" class="fil5" points="23869,17014 24631,17014 24631,17874 25463,17874 25463,17014 26228,17014 26228,19478 25463,19478 25463,18480 24631,18480 24631,19478 23869,19478 "/>
  <polygon id="9" class="fil5" points="28685,17620 27494,17620 27494,19478 26733,19478 26733,17014 28685,17014 "/>
  <path id="10" class="fil5" d="M30081 18248c0,-402 112,-716 336,-940 224,-224 536,-336 937,-336 410,0 726,111 948,330 222,220 333,529 333,926 0,287 -48,524 -145,708 -97,184 -238,327 -421,430 -184,103 -412,153 -685,153 -278,0 -508,-44 -690,-132 -182,-89 -331,-229 -444,-421 -113,-191 -169,-430 -169,-718zm760 1c0,249 47,427 139,536 93,109 219,163 379,163 163,0 291,-54 380,-159 90,-107 135,-297 135,-574 0,-231 -47,-400 -140,-507 -94,-107 -221,-161 -382,-161 -154,0 -278,54 -371,163 -93,109 -140,289 -140,539z"/>
  <path id="11" class="fil5" d="M33809 17963l407 0c372,0 650,67 830,198 180,132 270,337 270,614 0,228 -82,402 -247,522 -166,121 -403,181 -713,181l-1309 0 0 -2464 2076 0 0 499 -1314 0 0 450zm0 985l389 0c238,0 357,-86 357,-259 0,-151 -119,-227 -357,-227l-389 0 0 486z"/>
  <polygon id="12" class="fil5" points="35715,17014 36719,17014 37103,18513 37486,17014 38486,17014 38486,19478 37863,19478 37863,17599 37382,19478 36817,19478 36338,17599 36338,19478 35715,19478 "/>
  <polygon id="13" class="fil5" points="38971,17014 41008,17014 41008,17540 39735,17540 39735,17932 40915,17932 40915,18436 39735,18436 39735,18921 41046,18921 41046,19478 38971,19478 "/>
  <polygon id="14" class="fil5" points="41459,17014 42221,17014 42221,17874 43053,17874 43053,17014 43818,17014 43818,19478 43053,19478 43053,18480 42221,18480 42221,19478 41459,19478 "/>
  <polygon id="15" class="fil5" points="44327,17014 45088,17014 45088,17874 45921,17874 45921,17014 46685,17014 46685,19478 45921,19478 45921,18480 45088,18480 45088,19478 44327,19478 "/>
  <polygon id="16" class="fil5" points="49549,17014 49549,19478 48833,19478 48833,18125 47917,19478 47194,19478 47194,17014 47913,17014 47913,18377 48837,17014 "/>
  <path id="17" class="fil5" d="M52299 19478l-858 0 -299 -634c-70,-151 -124,-245 -162,-283 -39,-38 -93,-57 -161,-57l0 974 -761 0 0 -2464 761 0 0 946c66,-3 117,-27 154,-70 38,-44 94,-169 173,-377 58,-153 115,-263 173,-329 59,-68 154,-115 284,-144 131,-29 337,-44 617,-44l0 520 -39 0c-130,0 -227,25 -289,74 -62,49 -114,129 -154,240 -41,110 -84,192 -130,247 -47,54 -110,98 -191,130 110,37 206,98 287,187 82,87 169,225 261,410l334 674z"/>
  <path id="18" class="fil5" d="M52474 18248c0,-402 112,-716 337,-940 224,-224 536,-336 936,-336 410,0 726,111 948,330 223,220 334,529 334,926 0,287 -49,524 -146,708 -97,184 -237,327 -420,430 -184,103 -412,153 -686,153 -278,0 -507,-44 -690,-132 -182,-89 -330,-229 -443,-421 -113,-191 -170,-430 -170,-718zm761 1c0,249 46,427 139,536 93,109 219,163 378,163 164,0 292,-54 381,-159 90,-107 135,-297 135,-574 0,-231 -47,-400 -141,-507 -94,-107 -221,-161 -381,-161 -154,0 -278,54 -371,163 -94,109 -140,289 -140,539z"/>
  <path id="19" class="fil5" d="M55441 17014l1427 0c238,0 420,58 548,176 127,118 191,264 191,438 0,145 -46,270 -137,374 -60,70 -149,125 -265,165 177,43 306,115 390,220 83,103 125,233 125,390 0,128 -30,243 -89,345 -60,102 -141,182 -244,242 -64,37 -160,64 -290,80 -171,22 -285,34 -341,34l-1315 0 0 -2464zm768 967l332 0c119,0 202,-21 248,-61 47,-42 71,-101 71,-179 0,-71 -24,-128 -71,-167 -46,-41 -128,-61 -243,-61l-337 0 0 468zm0 967l388 0c131,0 224,-24 278,-70 54,-47 81,-108 81,-187 0,-73 -26,-131 -80,-176 -53,-44 -147,-66 -280,-66l-387 0 0 499z"/>
 </g>
</svg>